<svg xmlns="http://www.w3.org/2000/svg" viewBox="0 0 64 64" fill="none">
  <rect width="64" height="64" rx="14" fill="#ffe8ef"/>
  <g stroke="#ff6b9d" stroke-width="2.2" stroke-linecap="round" stroke-linejoin="round">
    <path d="M48 38a4 4 0 0 1-4 4H20l-8 8V18a4 4 0 0 1 4-4h28a4 4 0 0 1 4 4z"/>
    <path d="M32 19l2.6 5.2 5.8.8-4.2 4 1 5.8L32 31.6l-5.2 3.2 1-5.8-4.2-4 5.8-.8z" fill="#ff6b9d" fill-opacity="0.2" stroke="none"/>
    <path d="M32 19l2.6 5.2 5.8.8-4.2 4 1 5.8L32 31.6l-5.2 3.2 1-5.8-4.2-4 5.8-.8z" stroke-width="2"/>
  </g>
</svg>
